<svg xmlns="http://www.w3.org/2000/svg" viewBox="0 0 40 40"><g fill="currentColor" fill-rule="evenodd"><path fill-rule="nonzero" d="M14.46 25.46L13 27H8.8A2.81 2.81 0 0 1 6 24.18V10.82A2.81 2.81 0 0 1 8.8 8h22.4c1.55 0 2.8 1.26 2.8 2.82v13.36A2.81 2.81 0 0 1 31.2 27h-4.18l-1.65-1.54h5.83c.7 0 1.27-.58 1.27-1.28V10.82c0-.7-.57-1.28-1.27-1.28H8.8c-.7 0-1.27.58-1.27 1.28v13.36c0 .7.57 1.28 1.27 1.28h5.66z"/><path d="M20.6 22.65l8.18 9.01A.8.8 0 0 1 28.2 33H11.81a.8.8 0 0 1-.6-1.34l8.2-9a.8.8 0 0 1 1.18 0z"/></g></svg>
