<svg viewBox="0 0 40 40" fill="none" xmlns="http://www.w3.org/2000/svg">
<path d="M21 4L21.7071 3.29289C21.5196 3.10536 21.2652 3 21 3V4ZM31 14H32C32 13.7348 31.8946 13.4804 31.7071 13.2929L31 14ZM11 5H21V3H11V5ZM20.2929 4.70711L30.2929 14.7071L31.7071 13.2929L21.7071 3.29289L20.2929 4.70711ZM30 14V34H32V14H30ZM29 35H11V37H29V35ZM10 34V6H8V34H10ZM11 35C10.4477 35 10 34.5523 10 34H8C8 35.6569 9.34314 37 11 37V35ZM30 34C30 34.5523 29.5523 35 29 35V37C30.6569 37 32 35.6569 32 34H30ZM11 3C9.34315 3 8 4.34315 8 6H10C10 5.44772 10.4477 5 11 5V3Z" fill="currentColor"/>
<path d="M21 4.5L21 12C21 13.1046 21.8954 14 23 14H30.593" stroke="currentColor" stroke-width="2" stroke-linecap="round" stroke-linejoin="round"/>
<path d="M13.1918 28H14.9618V25.1H15.7018L17.3818 28H19.4218L17.2418 24.35L19.2118 20.8H17.2518L15.7318 23.65H14.9618V20.8H13.1918V28Z" fill="currentColor"/>
<path d="M20.768 20.8V28H22.538V25.58H23.028C23.228 25.58 23.398 25.57 23.588 25.54L24.798 28H26.718L25.228 25.13C25.958 24.71 26.328 24.07 26.328 23.14C26.328 21.73 25.388 20.8 23.578 20.8H20.768ZM23.488 22.32C24.188 22.32 24.528 22.6 24.528 23.22C24.528 23.84 24.158 24.18 23.438 24.18H22.538V22.32H23.488Z" fill="currentColor"/>
</svg>
