<svg xmlns="http://www.w3.org/2000/svg" viewBox="0 0 40 40">
  <path fill="none" fill-rule="evenodd" stroke="currentColor" stroke-width="2" d="M8.08 6.1h7.7c1.1 0 1.99.89 1.99 1.98v7.7c0 1.1-.9 1.99-1.99 1.99h-7.7c-1.1 0-1.98-.9-1.98-1.99v-7.7c0-1.1.89-1.98 1.98-1.98zm16.34 0h7.7c1.09 0 1.98.89 1.98 1.98v7.7c0 1.1-.89 1.99-1.99 1.99h-7.7c-1.09 0-1.98-.9-1.98-1.99v-7.7c0-1.1.89-1.98 1.99-1.98zM8.08 22.43h7.7c1.1 0 1.99.89 1.99 1.99v7.7c0 1.09-.9 1.98-1.99 1.98h-7.7c-1.1 0-1.98-.89-1.98-1.99v-7.7c0-1.09.89-1.98 1.98-1.98zm16.34 0h7.7c1.09 0 1.98.89 1.98 1.99v7.7c0 1.09-.89 1.98-1.99 1.98h-7.7c-1.09 0-1.98-.89-1.98-1.99v-7.7c0-1.09.89-1.98 1.99-1.98z"/>
</svg>