<svg xmlns="http://www.w3.org/2000/svg" viewBox="0 0 40 40"><g fill="none" fill-rule="evenodd"><path fill="currentColor" fill-rule="nonzero" d="M14.054 24c.644 0 1.224-.177 1.723-.548l-.346-.7c-.475.25-.822.362-1.248.362-.725 0-1.007-.403-1.055-.982h2.746c.008-.073.016-.427.016-.524 0-1.377-.652-2.062-1.828-2.062-1.265 0-2.062.886-2.062 2.255 0 1.426.773 2.199 2.054 2.199zm.813-2.642h-1.731c.016-.346.225-1.006.934-1.006.604 0 .797.467.797 1.006zM18.693 24c1.264 0 2.077-.677 2.077-1.796 0-.902-.475-1.313-1.586-1.675-.958-.314-1.345-.46-1.345-.959 0-.442.37-.668.894-.668.483 0 .99.193 1.417.572l.54-.66A2.737 2.737 0 0018.709 18c-1.136 0-2.014.548-2.014 1.683 0 .91.492 1.345 1.7 1.683.982.274 1.216.516 1.216.95 0 .476-.37.758-.878.758-.588 0-1.184-.282-1.716-.725l-.555.685a3.002 3.002 0 002.23.966zm4.171-.105v-5.798h-1.111v5.798h1.111zm2.062 0l.379-3.922 1.272 3.922h.894l1.273-3.914.378 3.914h1.047l-.572-5.798h-1.143l-1.434 4.26-1.401-4.26h-1.192l-.564 5.798h1.063z"/><path stroke="currentColor" stroke-dasharray="6 4" stroke-linecap="round" stroke-linejoin="round" stroke-width="2" d="M4 19v12h32V9H14L4 19z"/></g></svg>