<svg fill="none" xmlns="http://www.w3.org/2000/svg" viewBox="0 0 40 40"><g clip-path="url(#clip0)"><path d="M38 26V10a8 8 0 00-8-8H10a8 8 0 00-8 8v18a8 8 0 008 8v0" stroke="currentColor" stroke-width="2" stroke-linecap="round"/><path fill-rule="evenodd" clip-rule="evenodd" d="M25.92 27.5A1.08 1.08 0 0027 26.42v-1.34c0-.596.484-1.08 1.08-1.08h2.84A1.08 1.08 0 0032 22.92V9.08A1.08 1.08 0 0030.92 8H9.08A1.08 1.08 0 008 9.08v13.84c0 .596.484 1.08 1.08 1.08h2.84c.597 0 1.08.483 1.08 1.08v1.34c0 .596.484 1.08 1.08 1.08h1.34c.597 0 1.08.483 1.08 1.08v.34c0 .596.484 1.08 1.08 1.08h4.84a1.08 1.08 0 001.08-1.08v-.34c0-.596.484-1.08 1.08-1.08h1.34zM29 11a1 1 0 10-2 0v6a1 1 0 102 0v-6zm-5-1a1 1 0 011 1v6a1 1 0 11-2 0v-6a1 1 0 011-1zm-3 1a1 1 0 10-2 0v6a1 1 0 102 0v-6zm-5-1a1 1 0 011 1v6a1 1 0 11-2 0v-6a1 1 0 011-1zm-3 1a1 1 0 10-2 0v6a1 1 0 102 0v-6z" fill="currentColor"/><path d="M25.912 36.242l2.251-3.77v3.77h-2.252zm2.251 3.588h2.134v-1.86h.943v-1.727h-.943v-5.709h-2.749L24 36.308v1.663h4.163v1.859zM36.718 36.373h1.349v1.205c-.38.275-.838.38-1.388.38-1.545 0-2.2-1.087-2.2-2.841 0-1.755.708-2.789 2.017-2.789.982 0 1.335.537 1.414 1.204h2.396c-.157-1.872-1.179-3.286-3.85-3.286-3.037 0-4.412 2.056-4.412 4.91 0 2.566 1.074 4.844 4.426 4.844 1.283 0 2.736-.301 3.836-1.466v-3.902h-3.588v1.742z" fill="currentColor"/><path fill-rule="evenodd" clip-rule="evenodd" d="M18 33a1 1 0 10-2 0v2h-2a1 1 0 100 2h2v2a1 1 0 102 0v-2h2a1 1 0 100-2h-2v-2z" fill="currentColor"/></g><defs><clipPath id="clip0"><path fill="#fff" d="M0 0h40v40H0z"/></clipPath></defs></svg>
