<svg xmlns="http://www.w3.org/2000/svg" viewBox="0 0 40 40">
  <g fill="none" fill-rule="evenodd" stroke="currentColor" stroke-linecap="round" stroke-linejoin="round" stroke-width="1.95">
    <path d="M16.22 12.52l-3.2-3.2c-2.21-2.1-4.49-1.95-6.82.44-2.34 2.39-2.49 4.66-.44 6.82l9.58 9.59c2.31 1.9 4.59 1.75 6.83-.44 2.24-2.18 2.39-4.45.44-6.82L21 17.3"/>
    <path d="M24.63 28.28l3.2 3.19c2.27 2.1 4.54 1.96 6.82-.44 2.28-2.4 2.42-4.67.44-6.82l-9.59-9.59c-2.16-2-4.44-1.85-6.82.44-2.39 2.3-2.53 4.57-.44 6.83l1.6 1.6"/>
  </g>
</svg>