<svg xmlns="http://www.w3.org/2000/svg" viewBox="0 0 40 40"><g fill="none" fill-rule="evenodd"><rect width="11" height="9" x="13" y="18" fill="currentColor" stroke="currentColor" stroke-linecap="square" stroke-width="2" rx="1.069"/><path stroke="currentColor" stroke-linecap="square" stroke-width="2" d="M22 17v-1.472C22 13.579 20.433 12 18.5 12S15 13.58 15 15.528V17"/><path fill="currentColor" d="M33.582 21.757l-3.512-6a.507.507 0 01.167-.686.478.478 0 01.25-.071h7.026c.269 0 .487.224.487.5a.51.51 0 01-.07.257l-3.512 6a.48.48 0 01-.836 0z"/><path stroke="currentColor" stroke-linecap="round" stroke-width="2" d="M31.64 28.493A16.04 16.04 0 0118.042 36C9.182 36 2 28.837 2 20 2 12.2 7.596 5.704 15.002 4.287c.985-.188 2-.287 3.04-.287 8.3 0 15.129 6.287 15.958 14.347"/></g></svg>