<svg xmlns="http://www.w3.org/2000/svg" viewBox="0 0 40 40"><g fill="none" fill-rule="evenodd"><path fill="currentColor" fill-rule="nonzero" d="M23.3 25.508v-1.27h-1.25v-5.83h-1.3c-.5.59-1.32 1.08-2.05 1.27l.21 1.11c.57-.04 1.05-.16 1.49-.37v3.82h-1.41v1.27h4.31z"/><path stroke="currentColor" stroke-linecap="round" stroke-linejoin="round" stroke-width="2" d="M21.16 13h-8.053C8.629 13 5 16.743 5 21.36c0 4.618 3.63 8.361 8.107 8.361h15.26c4.478 0 8.108-3.743 8.108-8.36 0-4.618-3.63-8.361-8.107-8.361"/><path fill="currentColor" d="M23.833 13.49l-3.945 2.486a.579.579 0 01-.888-.49v-4.972a.579.579 0 01.888-.49l3.945 2.486a.579.579 0 010 .98z"/></g></svg>