<svg xmlns="http://www.w3.org/2000/svg" viewBox="0 0 40 40">
  <g fill="none" fill-rule="evenodd">
    <path fill="currentColor" fill-rule="nonzero" d="M16 29a2 2 0 110 4 2 2 0 010-4"/>
    <path stroke="currentColor" stroke-linecap="round" stroke-linejoin="round" stroke-width="2" d="M25 27.4V34c0 1-1 2-2 2H9a2 2 0 01-2-2V8c0-1 1-2 2-2h4.7"/>
    <path fill="currentColor" fill-rule="nonzero" d="M16.8 10.8l-.7-1.5c-.3-.3-.7 0-1-.4-.3 0 .8-1.9 2.5-3.2a11.2 11.2 0 014-1.8c.2 0 1.2-1 1.2 0 0 1.4-2.3 2.3-2.8 3.2-.5 1-.7 1.1-1.3 1-.5-.2-.8-.4-1 0l-.5 1c-.2.5.6 1.7 1 2 .4.2 1.7-.4 2.3-.4a4 4 0 011.8 1c.4.2.4.8.7 1 1 .1 2 0 2 1 0 1.7-.8 2-1.6 3.2-.6 1-1.2 1.3-1.5 1.9-.3.6.5 1 0 1.5-.5.4-.8.3-1.4-1-.5-1.3-.1-2.5-.5-3.5-.3-1-1.1-.8-1.5-1.8-.4-1-.2-1.2-.4-1.8-.2-.7-1.1-1-1.3-1.3zm10.4-1.4a3.1 3.1 0 010-1.7c.4-.8.8-.9 1.3-1 .3-.1.7-.4 1-.4.6 0 .5-.8.7-.7a14.8 14.8 0 012 2c1.2 1.5 1.6 2.9 1.7 3.3.3.8.7 5.9-.2 6.2h-1l.2-1.5-.2-1 .3-1c0-.5-.7-.5-1-1-.3-.4-.2-1-.4-1.2-.3-.3-1 .3-1.6.3a6.2 6.2 0 01-1.7-.4c-.3-.6-1-1.2-1.1-1.9z"/>
    <path stroke="currentColor" stroke-width="2" d="M24.5 3a10.5 10.5 0 110 21 10.5 10.5 0 010-21z"/>
  </g>
</svg>
