<?xml version="1.0" standalone="no"?>
<!DOCTYPE svg PUBLIC "-//W3C//DTD SVG 20010904//EN"
 "http://www.w3.org/TR/2001/REC-SVG-20010904/DTD/svg10.dtd">
<svg version="1.0" xmlns="http://www.w3.org/2000/svg"
 width="700.000000pt" height="700.000000pt" viewBox="0 0 700.000000 700.000000"
 preserveAspectRatio="xMidYMid meet">
<metadata>
Created by potrace 1.11, written by Peter Selinger 2001-2013
</metadata>
<g transform="translate(0.000000,700.000000) scale(0.100000,-0.100000)"
fill="#000000" stroke="none">
<path d="M4570 6659 c-35 -14 -58 -47 -65 -94 -7 -45 -1 -73 45 -225 18 -58
34 -114 36 -125 2 -11 6 -31 10 -45 15 -64 33 -160 39 -210 4 -30 8 -57 10
-60 8 -12 16 -200 10 -200 -4 0 -69 -16 -144 -36 -75 -20 -143 -37 -151 -39
-8 -2 -114 -29 -235 -60 -121 -31 -227 -58 -235 -60 -54 -12 -758 -190 -815
-205 -38 -11 -81 -21 -95 -24 -14 -3 -50 -12 -80 -20 -65 -17 -406 -104 -435
-111 -11 -3 -56 -14 -100 -25 -44 -12 -87 -23 -95 -25 -8 -2 -62 -15 -120 -30
-58 -14 -112 -27 -120 -29 -8 -2 -59 -15 -113 -29 -70 -18 -100 -22 -103 -14
-78 217 -124 388 -150 565 -10 72 -25 135 -36 152 -55 91 -195 93 -253 3 -21
-32 -26 -97 -14 -173 5 -30 11 -71 13 -90 16 -129 99 -443 146 -555 4 -11 18
-47 31 -80 74 -194 240 -496 363 -661 17 -23 40 -55 51 -70 74 -103 155 -194
305 -344 205 -206 364 -336 600 -492 74 -49 135 -93 135 -97 0 -5 -40 -58 -90
-117 -353 -425 -584 -871 -710 -1374 -58 -231 -87 -465 -88 -710 -1 -122 10
-326 17 -340 2 -3 7 -34 10 -69 8 -74 28 -115 72 -141 102 -64 235 13 228 133
-1 23 -5 77 -9 120 -4 42 -5 77 -3 77 2 0 220 54 483 121 264 66 487 122 495
124 16 4 442 112 850 216 129 33 242 62 250 64 8 1 116 29 240 60 124 31 236
59 249 61 13 3 28 6 34 7 11 2 51 -139 61 -216 3 -23 9 -62 12 -87 3 -25 8
-56 10 -70 2 -14 7 -99 10 -190 5 -136 10 -173 27 -208 23 -51 70 -101 126
-136 37 -24 48 -26 117 -21 92 5 129 25 161 84 23 45 25 97 8 261 -13 120 -17
157 -21 180 -2 14 -7 40 -10 59 -3 18 -8 43 -10 55 -2 11 -9 48 -15 81 -34
196 -114 434 -214 640 -221 453 -488 699 -1195 1104 -107 61 -202 115 -210
121 -8 5 -28 16 -45 24 -16 9 -75 40 -130 71 -55 31 -115 63 -132 72 -18 9
-33 19 -33 23 0 3 68 71 152 150 222 211 722 711 815 815 318 355 437 560 519
890 14 55 27 118 30 140 3 22 7 51 10 65 18 105 24 359 11 510 -24 281 -111
578 -219 745 -35 56 -90 102 -135 114 -47 13 -129 13 -163 0z m46 -1484 c-8
-19 -13 -35 -11 -35 3 0 -9 -37 -26 -82 -55 -149 -121 -255 -282 -453 -94
-116 -107 -129 -135 -131 -15 -1 -92 -5 -172 -8 -80 -4 -183 -9 -230 -11 -187
-9 -311 -15 -435 -20 -71 -3 -170 -7 -220 -10 -49 -2 -148 -7 -220 -10 -71 -3
-170 -8 -220 -10 -49 -3 -148 -7 -220 -10 -71 -3 -168 -8 -215 -10 l-85 -4
-35 52 c-69 103 -200 332 -200 349 0 3 35 11 78 17 42 7 91 15 107 18 17 2 41
6 55 8 14 2 99 15 190 30 91 14 183 28 205 31 22 3 63 9 90 14 28 5 70 12 95
15 25 3 56 8 70 10 14 3 39 7 55 9 237 38 357 56 390 61 22 2 51 7 65 9 14 3
72 12 130 21 58 8 116 17 129 20 13 2 87 14 165 25 77 11 152 23 166 26 14 2
43 7 65 9 22 3 51 8 65 10 41 7 212 34 255 40 23 3 50 7 60 9 11 2 40 7 65 11
25 4 52 9 60 10 8 2 42 6 75 10 33 3 62 8 64 11 15 15 19 -2 7 -31z m-604
-912 c-17 -21 -43 -52 -59 -69 -48 -53 -84 -95 -203 -234 -63 -74 -120 -139
-126 -145 -6 -5 -53 -57 -105 -115 -51 -58 -96 -107 -99 -110 -3 -3 -43 -47
-89 -98 -48 -53 -90 -91 -97 -88 -30 11 -287 185 -384 259 -181 139 -428 364
-413 377 5 4 44 13 88 20 44 7 89 14 100 15 11 2 65 11 120 19 55 9 109 18
120 20 11 2 43 7 70 10 28 4 61 9 75 11 76 13 169 27 195 31 17 3 73 12 125
20 52 9 109 17 125 20 17 2 41 6 55 9 14 2 48 7 75 11 28 3 59 8 70 10 11 3
36 7 55 10 19 3 60 9 90 14 57 10 91 15 175 26 28 3 52 8 54 10 2 2 6 4 9 4 2
0 -10 -17 -26 -37z m-412 -1495 c385 -263 641 -445 641 -454 0 -4 -6 -9 -13
-10 -7 -1 -26 -5 -43 -8 -16 -2 -50 -8 -75 -11 -70 -10 -196 -30 -445 -70 -88
-14 -173 -28 -190 -31 -16 -2 -41 -6 -55 -9 -14 -2 -43 -7 -65 -10 -22 -3 -67
-10 -100 -15 -33 -5 -78 -12 -100 -15 -22 -3 -65 -10 -95 -15 -30 -5 -68 -12
-85 -14 -16 -3 -87 -14 -158 -25 -70 -12 -130 -21 -132 -21 -24 0 250 474 342
590 126 161 173 220 194 241 13 15 34 39 47 54 13 15 29 25 35 22 7 -3 140
-92 297 -199z m1121 -825 c60 -64 118 -137 157 -199 34 -54 83 -147 79 -150
-1 -1 -67 -11 -147 -23 -80 -12 -155 -23 -165 -25 -11 -2 -56 -9 -100 -16 -44
-7 -87 -13 -95 -15 -8 -1 -35 -6 -60 -9 -25 -4 -72 -11 -105 -16 -33 -5 -136
-21 -230 -36 -93 -14 -181 -27 -195 -30 -14 -2 -43 -7 -65 -9 -22 -3 -51 -8
-65 -10 -35 -6 -207 -33 -255 -40 -42 -6 -79 -11 -130 -20 -16 -3 -48 -8 -70
-11 -41 -6 -48 -7 -150 -24 -33 -5 -77 -12 -97 -15 -59 -8 -101 -14 -128 -19
-14 -3 -41 -7 -60 -10 -227 -33 -377 -57 -387 -61 -16 -5 -11 43 18 189 27
140 55 245 95 369 33 100 37 107 62 108 15 1 45 2 67 4 22 2 83 6 135 9 52 4
124 8 160 11 36 2 103 7 150 10 98 6 220 14 300 20 30 2 100 7 155 10 55 3
127 8 160 10 33 2 101 7 150 10 50 3 117 8 150 10 33 3 103 7 155 10 52 3 120
7 150 10 30 3 104 7 165 11 60 3 112 7 114 9 7 8 37 -14 82 -62z"/>
</g>
</svg>
