<svg xmlns="http://www.w3.org/2000/svg" viewBox="0 0 40 40">
  <g fill="none" fill-rule="evenodd">
    <path fill="currentColor" d="M18.089 24.076v-4.258c-.491.234-1.026.368-1.661.412l-.235-1.237c.814-.212 1.728-.758 2.286-1.416h1.449v6.5h1.393v1.415h-4.804v-1.416h1.572zm5.884-2.497c0 1.616.323 2.475 1.137 2.475.792 0 1.148-.859 1.148-2.508 0-1.583-.312-2.497-1.137-2.497s-1.148.914-1.148 2.53zm-1.85 0c0-2.709 1.092-4.113 3.032-4.113 1.917 0 2.954 1.404 2.954 4.013 0 2.809-1.082 4.158-3.032 4.158-1.94 0-2.954-1.35-2.954-4.058z"/>
    <path stroke="currentColor" stroke-linecap="round" d="M10.557 22.344h3.28"/>
    <path fill="currentColor" d="M19.503 5.677l5.034-2.918a.734.734 0 0 1 1.102.636v6.39a.734.734 0 0 1-1.102.636l-5.034-2.918v2.283a.734.734 0 0 1-1.102.635l-5.513-3.195a.734.734 0 0 1 0-1.271l5.513-3.196a.734.734 0 0 1 1.102.636v2.282z"/>
    <path stroke="currentColor" stroke-linecap="round" stroke-width="2" d="M6.128 14.187a15.928 15.928 0 0 0-1.997 7.747c0 8.837 7.164 16 16 16 7.8 0 14.296-5.58 15.713-12.968.189-.981.287-1.995.287-3.032 0-8.278-6.287-15.088-14.347-15.915"/>
  </g>
</svg>