<svg xmlns="http://www.w3.org/2000/svg" xmlns:xlink="http://www.w3.org/1999/xlink" viewBox="0 0 40 40">
  <defs>
    <path id="a" d="M3.988 0C2.602 0 2.1.145 1.591.417A2.833 2.833 0 0 0 .415 1.6C.145 2.108 0 2.613 0 4.006v10.738c0 1.393.145 1.897.415 2.408.271.508.67.909 1.176 1.18.508.273 1.01.418 2.397.418h3.189l1.333-1.563H3.55c-.694 0-.945-.072-1.199-.209a1.41 1.41 0 0 1-.587-.59c-.136-.254-.208-.508-.208-1.203V3.565c0-.696.072-.949.208-1.203.135-.255.334-.455.587-.59.254-.137.505-.21 1.199-.21H24.45c.692 0 .945.073 1.197.21.254.135.453.335.588.59.136.254.208.507.208 1.204v11.62c0 .694-.072.948-.208 1.202a1.403 1.403 0 0 1-.588.59c-.252.137-.505.21-1.197.21H19.49l1.333 1.562h3.189c1.386 0 1.89-.145 2.397-.417a2.835 2.835 0 0 0 1.176-1.181c.27-.51.415-1.015.415-2.408V4.006c0-1.393-.145-1.898-.415-2.407-.271-.51-.67-.91-1.176-1.182C25.902.145 25.399 0 24.012 0H3.988zm9.526 14.448l-8.308 9.607c-.317.368-.062.945.417.945h16.754c.479 0 .735-.577.417-.945l-8.308-9.607a.638.638 0 0 0-.972 0z"/>
  </defs>
  <g fill="none" fill-rule="evenodd">
    <path d="M0 0h40v40H0z" opacity=".2"/>
    <g transform="translate(6 8)">
      <mask id="b" fill="#fff">
        <use xlink:href="#a"/>
      </mask>
      <path fill="currentColor" d="M-3.889 28.906h35.778V-3.906H-3.889z" mask="url(#b)"/>
    </g>
  </g>
</svg>