<svg xmlns="http://www.w3.org/2000/svg" viewBox="0 0 40 40">
  <g fill="none" fill-rule="evenodd">
    <path fill="currentColor" d="M24.167 21.005l-8.952 5.011a1.152 1.152 0 0 1-1.715-1.005V14.989a1.152 1.152 0 0 1 1.715-1.005l8.952 5.01a1.152 1.152 0 0 1 0 2.011zM33.166 21.871l-3.619-6.029a.502.502 0 0 1 .43-.76h7.237a.502.502 0 0 1 .43.76l-3.618 6.03a.502.502 0 0 1-.86 0z"/>
    <path stroke="currentColor" stroke-linecap="round" stroke-width="2" d="M31.647 28.493C28.817 33.003 23.8 36 18.084 36c-8.836 0-16-7.163-16-16 0-7.8 5.582-14.296 12.968-15.713A16.084 16.084 0 0 1 18.084 4C26.363 4 33.173 10.287 34 18.347"/>
  </g>
</svg>