<svg xmlns="http://www.w3.org/2000/svg" viewBox="0 0 40 40">
  <g fill="none" fill-rule="evenodd" stroke="currentColor" stroke-width="2">
    <circle cx="26" cy="7" r="3"/>
    <circle cx="14" cy="7" r="3"/>
    <circle cx="20" cy="18" r="3"/>
    <path stroke-linecap="round" stroke-linejoin="round" d="M24 13h4a4 4 0 0 1 4 4v8.6a2 2 0 0 1-2 2h-1V36h-3M14 36h-3v-8.4h-1a2 2 0 0 1-2-2V17a4 4 0 0 1 4-4h4M17 23h6c.6 0 1 .4 1 1v4.4c0 .4-.2.7-.6.9l-.8.4a1 1 0 0 0-.6 1V36h-4v-5.4a1 1 0 0 0-.6-.9l-.8-.4a1 1 0 0 1-.6-1V24c0-.6.4-1 1-1z"/>
  </g>
</svg>