<svg xmlns="http://www.w3.org/2000/svg" viewBox="0 0 40 40">
  <g fill="none" fill-rule="evenodd">
    <path stroke="currentColor" stroke-linecap="round" stroke-linejoin="round" stroke-width="2" d="M35.7 12.8c0 4.1-4.4 6-9.5 6L21 21v-4c-1-1-2.7-2-2.7-4.2 0-3.4 3.9-6.2 8.7-6.2 4.8 0 8.7 2.8 8.7 6.2z"/>
    <path fill="currentColor" d="M32 13a1 1 0 1 1-2 0 1 1 0 0 1 2 0M28 13a1 1 0 1 1-2 0 1 1 0 0 1 2 0M24 13a1 1 0 1 1-2 0 1 1 0 0 1 2 0"/>
    <path stroke="currentColor" stroke-linecap="round" stroke-width="2" d="M4 36c.1-3.3 1.6-5 4.6-5h6.9c2.7 0 4.2 1.7 4.4 5"/>
    <circle cx="12.2" cy="23.2" r="4.2" stroke="currentColor" stroke-width="2"/>
  </g>
</svg>