<svg xmlns="http://www.w3.org/2000/svg" viewBox="0 0 40 40">
  <g fill="none" fill-rule="evenodd">
    <path stroke="currentColor" stroke-width="2" d="M20 11h9.47c2.85 0 5.69 1.87 7.58 7.48 1.9 5.6.95 10.28-2.84 12.15-2.46 1.21-5.53-.54-9.2-5.24a1.9 1.9 0 0 0-.78-.6 11.3 11.3 0 0 0-4.23-.7c-1.65 0-3.06.23-4.23.7a1.9 1.9 0 0 0-.79.6c-3.66 4.7-6.73 6.45-9.2 5.24C2 28.76 1.06 24.08 2.96 18.48 4.85 12.87 7.68 11 10.53 11H20z"/>
    <path stroke="currentColor" stroke-linecap="round" stroke-linejoin="round" stroke-width="2" d="M10.09 17v6.04M13 20H7"/>
    <circle cx="32.5" cy="19.5" r="1.5" fill="currentColor" fill-rule="nonzero"/>
    <circle cx="29.5" cy="16.5" r="1.5" fill="currentColor" fill-rule="nonzero"/>
    <circle cx="29.5" cy="22.5" r="1.5" fill="currentColor" fill-rule="nonzero"/>
    <circle cx="26.5" cy="19.5" r="1.5" fill="currentColor" fill-rule="nonzero"/>
  </g>
</svg>