<svg xmlns="http://www.w3.org/2000/svg" viewBox="0 0 40 40">
  <g fill="none" fill-rule="evenodd">
    <path fill="currentColor" d="M23.1 21.03l-5.75 3.18a.73.73 0 0 1-1.08-.64v-6.36a.73.73 0 0 1 1.08-.63l5.75 3.18a.73.73 0 0 1 0 1.27z"/>
    <path stroke="currentColor" stroke-linecap="round" stroke-width="2" d="M19.12 33.17c-7.16 0-12.96-5.89-12.96-13.16 0-7.27 5.8-13.16 12.96-13.16 6.4 0 11.72 4.72 12.77 10.92"/>
    <path fill="currentColor" fill-rule="nonzero" d="M30.02 32.32l-2.33 1.23a.49.49 0 0 1-.71-.52l.44-2.6a.49.49 0 0 0-.14-.43l-1.89-1.84a.49.49 0 0 1 .27-.83l2.62-.38c.16-.03.3-.13.36-.27l1.17-2.37a.49.49 0 0 1 .88 0l1.17 2.37c.07.14.2.24.36.27l2.62.38a.49.49 0 0 1 .27.83L33.2 30a.49.49 0 0 0-.13.43l.44 2.6a.49.49 0 0 1-.7.52l-2.34-1.23a.49.49 0 0 0-.46 0z"/>
  </g>
</svg>