<svg xmlns="http://www.w3.org/2000/svg" viewBox="0 0 40 40"><g fill="none" fill-rule="evenodd" stroke="currentColor" stroke-width="2"><path d="M19.5 15.5c-2.2013 0-4 1.7987-4 4s1.7987 4 4 4 4-1.7987 4-4-1.7987-4-4-4z"/><path d="M34.8134 17.0845l-.0503-.0046c-.2464-.029-.4996-.0519-.9247-.0854-.2554-.02-.3951-.031-.5239-.0415-.2072-.0168-.3864-.0324-.4673-.0446-.3252 0-.6132-.121-.8383-.3236-.1213-.1091-.178-.184-.279-.3356l-.0817-.1226-.043-.141c-.2372-.7795-.5358-1.4979-.8738-2.1257-.3258-.4888-.2468-1.0424.0357-1.466l.0794-.1038c.4599-.5256.8807-1.015 1.3011-1.5118.3586-.4341.3308-1.0636-.0848-1.4793l-2.0623-2.0979c-.4127-.4127-1.017-.4397-1.4642-.0864-.1196.1013-.6148.514-.7405.6201-.293.2476-.5305.4562-.7565.667l-.1276.101c-.401.2673-.8744.3402-1.3753.0895-.747-.3913-1.5034-.7106-2.2415-.9357-.5075-.1691-.8977-.646-.8966-1.1864-.0296-.6216-.0832-1.2036-.1745-1.9807-.0563-.5632-.5218-.9895-1.0733-.9895H18.155A1.0758 1.0758 0 0 0 17.08 4.5069c-.029.2463-.0519.4995-.0854.9247-.02.2553-.031.395-.0415.5238-.0168.2072-.0324.3864-.0446.4673 0 .3252-.121.6132-.3236.8383-.1091.1214-.184.178-.3356.279l-.1226.0817-.141.043c-.7795.2372-1.4979.5358-2.1257.8738-.4888.3259-1.0424.2468-1.466-.0357l-.1276-.101c-.226-.2108-.4635-.4194-.7565-.667-.1258-.1062-.621-.5188-.7315-.6125-.4341-.3586-1.0636-.3308-1.4732.0788l-2.104 2.104c-.4127.4127-.4397 1.017-.0864 1.4641.1013.1197.514.6148.6201.7406.2476.293.4562.5305.667.7565l.101.1276c.2673.4009.3402.8744.0895 1.3753-.3913.747-.7106 1.5033-.9357 2.2415-.1691.5075-.646.8977-1.1864.8966-.6216.0296-1.2036.0832-1.9807.1745-.5632.0563-.9895.5218-.9895 1.0732v2.9955c0 .5609.4294 1.0354 1.0069 1.0752.2463.029.4995.0518.9247.0854.2553.02.395.031.5238.0414.2072.0169.3864.0324.4673.0447.3252 0 .6132.121.8383.3235.1214.1092.178.1841.279.3357l.0817.1226.043.141c.2372.7795.5358 1.4978.8738 2.1257.3259.4888.2468 1.0424-.0357 1.466l-.0794.1038c-.4599.5255-.8806 1.015-1.301 1.5118-.3587.4341-.3309 1.0636.0787 1.4732l2.104 2.104c.4127.4126 1.017.4396 1.4641.0863.1197-.1012.6148-.5139.7406-.62.293-.2476.5305-.4562.7565-.667l.1276-.101c.4009-.2673.8744-.3402 1.3753-.0895.747.3913 1.5033.7106 2.2415.9356.5075.1692.8977.6461.8966 1.1864.0296.6217.0832 1.2037.1745 1.9808.0563.5632.5218.9895 1.0732.9895h2.9955a1.0758 1.0758 0 0 0 1.0752-1.0069c.029-.2463.0518-.4995.0854-.9247.02-.2554.031-.395.0414-.5238.0169-.2073.0324-.3865.0447-.4673 0-.3252.121-.6132.3235-.8384.1092-.1213.1841-.1779.3357-.279l.1226-.0817.141-.0429c.7795-.2372 1.4978-.5358 2.1257-.8738.4888-.3259 1.0424-.2468 1.466.0356l.1276.101c.226.211.4635.4195.7565.667.1257.1062.621.519.7315.6126.4341.3586 1.0636.3307 1.4732-.0788l2.104-2.104c.4126-.4127.4396-1.017.0863-1.4642-.1012-.1196-.5139-.6148-.62-.7405-.2476-.293-.4562-.5305-.667-.7565l-.101-.1276c-.2673-.401-.3402-.8744-.0895-1.3753.3913-.747.7106-1.5034.9356-2.2415.1692-.5075.6461-.8977 1.1864-.8966.6217-.0296 1.2037-.0832 1.9808-.1745.5632-.0563.9895-.5218.9895-1.0733l.0005-2.9621c-.0195-.5845-.4632-1.0686-.9927-1.1039z"/></g></svg>