<svg xmlns="http://www.w3.org/2000/svg" viewBox="0 0 40 40">
  <g fill="none" fill-rule="evenodd">
    <path stroke="currentColor" stroke-linecap="round" stroke-linejoin="round" stroke-width="2" d="M25.13 5.67c-6.62 0-12 3.97-12 8.87 0 5.82 6.63 9.33 13.25 9.33l5.36 4 .71-6a7.57 7.57 0 0 0 4.68-7.33c0-4.9-5.37-8.87-12-8.87M9.5 16.5c-4 .5-7.66 3.31-7.66 7.37 0 2.82 1.56 5.23 4.79 6.64l-1.02 3.95 4.4-2.53c7.4 1.29 11.87-1.53 12.99-4.43"/>
    <path fill="currentColor" d="M21.51 15.03c0 .76-.63 1.37-1.4 1.37-.78 0-1.4-.61-1.4-1.37 0-.75.62-1.36 1.4-1.36.77 0 1.4.6 1.4 1.36M26.3 15.03c0 .76-.62 1.37-1.4 1.37-.77 0-1.4-.61-1.4-1.37 0-.75.63-1.36 1.4-1.36.78 0 1.4.6 1.4 1.36M31.2 15.03c0 .76-.62 1.37-1.4 1.37-.78 0-1.4-.61-1.4-1.37 0-.75.62-1.36 1.4-1.36.78 0 1.4.6 1.4 1.36"/>
  </g>
</svg>