<svg xmlns="http://www.w3.org/2000/svg" viewBox="0 0 40 40">
  <g fill="none" fill-rule="evenodd">
    <path stroke="currentColor" stroke-linecap="round" stroke-width="2.02" d="M25.01 33H8a2 2 0 0 1-2-2V18c0-1.1.9-2 2-2h21a2 2 0 0 1 2 2v2.96"/>
    <path fill="currentColor" d="M26.5 22a1.5 1.5 0 1 0 0-3 1.5 1.5 0 0 0 0 3"/>
    <path stroke="currentColor" stroke-linecap="round" stroke-width="1.01" d="M9.5 20.5h12"/>
    <path stroke="currentColor" stroke-linecap="round" stroke-width="2.02" d="M12 8l16 8"/>
    <path stroke="currentColor" stroke-linecap="round" stroke-width="1.21" d="M31.83 34.32v-9.54c0-.27.18-.5.44-.55l2.38 1.36"/>
    <ellipse cx="29.91" cy="34.6" stroke="currentColor" stroke-width="1.21" rx="1.91" ry="1.39"/>
  </g>
</svg>