<svg xmlns="http://www.w3.org/2000/svg" viewBox="0 0 40 40">
  <g fill="none" fill-rule="evenodd">
    <path fill="currentColor" d="M22 38h-4a1 1 0 0 0 0 2h4a1 1 0 0 0 0-2zM23 34.5h-6a1 1 0 0 0 0 2h6a1 1 0 0 0 0-2zM10.3 6.83L8.16 4.7a1 1 0 1 0-1.41 1.41l2.12 2.12a1 1 0 0 0 1.41-1.41zM33.27 29.35l-2.12-2.12a1 1 0 0 0-1.41 1.41l2.11 2.13a1 1 0 0 0 1.41-1.41zM32.83 4.7L30.7 6.84a1 1 0 0 0 1.41 1.41l2.12-2.12a1 1 0 1 0-1.41-1.41zM8.85 27.23l-2.12 2.12a1 1 0 0 0 1.41 1.41l2.13-2.11a1 1 0 0 0-1.41-1.41zM6 16H3a1 1 0 0 0 0 2h3a1 1 0 0 0 0-2zM37 16h-3a1 1 0 0 0 0 2h3a1 1 0 0 0 0-2zM21 4V1a1 1 0 0 0-2 0v3a1 1 0 0 0 2 0z"/>
    <path stroke="currentColor" stroke-width="2" d="M24 30.08C24 24.32 30 22.4 30 16.64s-5-8.64-10-8.64C15 8 10 10.88 10 16.64c0 5.76 6 7.68 6 13.44A1.92 1.92 0 0 0 17.92 32h4.15c1.06 0 1.92-.86 1.93-1.92z"/>
  </g>
</svg>