<svg xmlns="http://www.w3.org/2000/svg" viewBox="0 0 40 40">
  <g fill="none" fill-rule="evenodd" stroke="currentColor" stroke-width="2">
    <path d="M18.78 32.5785L6.9063 30.4936c-.9601-.1685-1.6604-1.0025-1.6604-1.9773v-18.362c0-1.1088.8988-2.0076 2.0076-2.0076.1163 0 .2325.01.347.0302l5.8626 1.029 6.4943 1.1397V31.59c0 .5544-.4494 1.0038-1.0038 1.0038-.0582 0-.1162-.005-.1736-.0151zM21.1348 32.5785l11.8738-2.0849c.9601-.1685 1.6604-1.0025 1.6604-1.9773v-18.362c0-1.1088-.8989-2.0076-2.0076-2.0076-.1164 0-.2325.01-.347.0302l-5.8627 1.029-6.4943 1.1397V31.59c0 .5544.4495 1.0038 1.0038 1.0038.0582 0 .1163-.005.1736-.0151z"/>
  </g>
</svg>