<svg xmlns="http://www.w3.org/2000/svg" viewBox="0 0 40 40">
  <g fill="none" fill-rule="evenodd" stroke="currentColor" stroke-width="2">
    <path d="M24.49791 29.54223l-2.3909-2.38789c-.66946-.6686-1.72146-.6686-2.39091 0l-1.91273 1.91031c-2.77345-1.33722-5.5469-4.10716-6.79017-6.87711l1.81708-1.91031c.66946-.6686.66946-1.71928 0-2.29237l-2.3909-2.4834c-.66946-.66861-1.72145-.66861-2.3909 0l-2.39092 2.4834C1.5452 22.09202 17.89901 38.52068 22.107 34.318l2.39091-2.38789c.66945-.6686.66945-1.71927 0-2.38788z"/>
    <path stroke-linecap="round" stroke-linejoin="round" d="M34.45872 12.22765c0 4.0914-4.38996 5.93928-9.50667 5.93928l-5.21503 2.23403v-4c-1-1-2.73702-1.96496-2.73702-4.1733C17 8.78828 20.90864 6 25.7296 6c4.82098 0 8.72912 2.78829 8.72912 6.22765z"/>
  </g>
</svg>