<svg xmlns="http://www.w3.org/2000/svg" viewBox="0 0 40 40"><g fill="none" fill-rule="evenodd"><path fill="currentColor" fill-rule="nonzero" d="M8.868 29.807c2.774 0 5.374-1.745 5.374-5.166 0-1.832-1.012-2.949-2.931-2.949-1.03 0-1.728.332-2.111.559l.436-1.606h4.397l.698-3.088H7.63l-1.867 7.695h2.635l.174-.698c.384-.227.838-.453 1.361-.453.611 0 .925.349.925.977 0 1.256-.855 1.745-1.745 1.745-.942 0-1.832-.245-2.844-.82l-1.396 2.355c.872.855 2.513 1.449 3.996 1.449zm11.43.017c1.657 0 3.612-.401 5.304-1.954l.855-5.2h-4.659l-.384 2.303h1.763l-.262 1.623c-.576.366-1.187.506-1.902.506-1.623 0-2.338-1.082-2.338-2.792 0-2.757 1.239-4.712 3.367-4.712 1.274 0 1.606.716 1.553 1.606h3.107c.226-2.495-.786-4.38-4.258-4.38-4.746 0-6.98 3.664-6.98 7.974 0 2.723 1.239 5.026 4.834 5.026z"/><path stroke="currentColor" stroke-linecap="round" stroke-linejoin="round" stroke-width="2" d="M20 11.318c2.933-.636 5.5-.318 7.7.955C31 14.182 31 18 31 18M18 5.545c4.941-1.09 9.141-.545 12.6 1.637C35.788 10.455 36 17 36 17"/></g></svg>