<svg xmlns="http://www.w3.org/2000/svg" viewBox="0 0 40 40">
  <g fill="none" fill-rule="evenodd">
    <path stroke="currentColor" stroke-width="2" d="M23.42 7.09h6.95c1 0 1.81.81 1.81 1.82v6.97c0 1-.81 1.82-1.81 1.82h-6.95c-1 0-1.82-.82-1.82-1.82V8.9c0-1 .81-1.82 1.82-1.82zM8.9 22.54h6.94c1 0 1.82.82 1.82 1.82v6.97c0 1-.81 1.82-1.82 1.82H8.91c-1 0-1.82-.81-1.82-1.82v-6.97c0-1 .81-1.82 1.82-1.82z"/>
    <path fill="currentColor" d="M26.84 21.72l-2.48 4.2a.35.35 0 0 0 .3.53h4.97a.35.35 0 0 0 .3-.53l-2.48-4.2a.35.35 0 0 0-.6 0z"/>
    <path stroke="currentColor" stroke-linecap="round" stroke-width="2" d="M27.14 25.27v1.56c0 .78-.1 3.88-3.73 3.88"/>
    <g>
      <path fill="currentColor" d="M12.73 17.91l2.48-4.2a.35.35 0 0 0-.3-.52H9.95a.35.35 0 0 0-.3.53l2.48 4.2a.35.35 0 0 0 .6 0z"/>
      <path stroke="currentColor" stroke-linecap="round" stroke-width="2" d="M12.43 15.27V13.7c0-.77.1-3.88 3.74-3.88"/>
    </g>
  </g>
</svg>