<svg width="42" height="40" viewBox="0 0 42 40" fill="none" xmlns="http://www.w3.org/2000/svg">
<path fill-rule="evenodd" clip-rule="evenodd" d="M3 26C3 24.8954 3.89543 24 5 24H37C38.1046 24 39 24.8954 39 26V36.2756C39 37.3802 38.1046 38.2756 37 38.2756H5C3.89543 38.2756 3 37.3802 3 36.2756V26Z" stroke="currentColor" stroke-width="2"/>
<path d="M8 29H12" stroke="currentColor" stroke-width="2" stroke-linecap="round"/>
<path d="M15 29H19" stroke="currentColor" stroke-width="2" stroke-linecap="round"/>
<path d="M33.0981 10.1324C33.194 9.58849 32.8309 9.06984 32.287 8.97393C31.7431 8.87803 31.2244 9.2412 31.1285 9.78509L33.0981 10.1324ZM31.1285 9.78509L28.6974 23.5724L30.6671 23.9197L33.0981 10.1324L31.1285 9.78509Z" fill="#191919"/>
<path d="M26.8991 4.97767C25.4962 5.92049 24.413 7.55909 24.0612 9.55441C23.7095 11.5489 24.1668 13.46 25.1626 14.8257" stroke="currentColor" stroke-width="2" stroke-linecap="round" stroke-linejoin="round"/>
<path d="M38.7168 7.0614C39.7126 8.42717 40.17 10.3374 39.8181 12.3327C39.4664 14.3272 38.3831 15.9666 36.9803 16.9095" stroke="currentColor" stroke-width="2" stroke-linecap="round" stroke-linejoin="round"/>
<path d="M10.8765 9.9588C10.7806 9.4149 10.2619 9.05174 9.71805 9.14764C9.17416 9.24354 8.81099 9.7622 8.90689 10.3061L10.8765 9.9588ZM8.90689 10.3061L11.338 24.0934L13.3076 23.7461L10.8765 9.9588L8.90689 10.3061Z" fill="#191919"/>
<path d="M3.28826 7.2351C2.29246 8.60087 1.83505 10.5111 2.18688 12.5064C2.53857 14.501 3.62187 16.1404 5.02474 17.0832" stroke="currentColor" stroke-width="2" stroke-linecap="round" stroke-linejoin="round"/>
<path d="M15.106 5.15125C16.5088 6.09407 17.592 7.73267 17.9438 9.72799C18.2955 11.7225 17.8382 13.6336 16.8424 14.9993" stroke="currentColor" stroke-width="2" stroke-linecap="round" stroke-linejoin="round"/>
</svg>
