<svg viewBox="0 0 40 40" fill="none" xmlns="http://www.w3.org/2000/svg">
  <path d="M23.4979 30.5422L21.107 28.1543C20.4375 27.4857 19.3855 27.4857 18.7161 28.1543L16.8034 30.0647C14.0299 28.7274 11.2565 25.9575 10.0132 23.1875L11.8303 21.2772C12.4997 20.6086 12.4997 19.558 11.8303 18.9849L9.43938 16.5015C8.76992 15.8328 7.71793 15.8328 7.04847 16.5015L4.65756 18.9849C0.545205 23.092 16.899 39.5207 21.107 35.318L23.4979 32.9301C24.1674 32.2615 24.1674 31.2108 23.4979 30.5422Z" stroke="currentColor" stroke-width="2"/>
  <path d="M19.991 10.5529C19.8195 10.2149 19.5505 9.26865 19.2783 9.04093C19.0062 8.81321 18.6947 8.96594 18.3096 8.71812C18.1062 8.58718 19.1378 6.84215 20.7678 5.60035C22.2228 4.49188 24.2675 3.8652 24.5469 3.8652C24.6817 3.8652 25.6346 2.91166 25.6346 3.8652C25.6346 5.14928 23.4417 6.06447 23.023 6.92856C22.517 7.97292 22.3224 7.98726 21.732 7.82571C21.337 7.71763 21.0003 7.51803 20.7678 7.82571C20.5321 8.13758 20.4726 8.48336 20.3537 8.84326C20.1974 9.31615 20.9503 10.4577 21.3074 10.735C21.6644 11.0124 22.9003 10.3701 23.4959 10.4413C23.8428 10.4827 24.6308 10.8084 25.2061 11.3377C25.4946 11.6031 25.4987 12.2012 25.8306 12.2748C26.755 12.4798 27.6533 12.4223 27.6922 13.4046C27.7534 14.9499 26.926 15.1933 26.1811 16.3784C25.5853 17.3263 25.0555 17.6619 24.7804 18.2534C24.5054 18.8449 25.2155 19.2941 24.7804 19.6885C24.3454 20.0829 23.9762 19.9991 23.4959 18.7395C23.0156 17.4799 23.3424 16.3098 23.023 15.3277C22.7036 14.3455 21.9248 14.5886 21.5446 13.5767C21.1645 12.5649 21.3742 12.46 21.1876 11.8318C21.0009 11.2036 20.1625 10.8909 19.991 10.5529Z" fill="currentColor"/>
  <path d="M29.5944 9.30537C29.4974 8.689 29.5102 8.16915 29.6861 7.78751C30.0325 7.03627 30.4129 6.96515 30.8518 6.83096C31.1368 6.74384 31.5354 6.46546 31.765 6.47631C32.3806 6.50541 32.2816 5.69713 32.5275 5.83019C33.4822 6.60781 34.1135 7.19627 34.4214 7.59557C35.4671 8.95196 35.81 10.1326 35.9193 10.4902C36.1557 11.2635 36.4764 15.7987 35.6607 16.0784C35.4156 16.1624 34.8283 16.2483 34.732 16.1811C34.6358 16.1139 34.8076 15.0768 34.8757 14.7392C34.9109 14.5645 34.6794 14.2542 34.7003 13.9004C34.7197 13.5709 34.9931 13.2023 34.9867 12.9039C34.9789 12.536 34.3783 12.5275 34.072 12.1106C33.8201 11.7677 33.9605 11.1958 33.7342 11.0057C33.4094 10.7328 32.721 11.3227 32.2187 11.3017C31.7655 11.2827 30.6935 11.0059 30.6492 10.9377C30.321 10.4319 29.6913 9.92174 29.5944 9.30537Z" fill="currentColor"/>
  <path fill-rule="evenodd" clip-rule="evenodd" d="M27 22.3499C32.1639 22.3499 36.35 18.1638 36.35 12.9999C36.35 7.83604 32.1639 3.6499 27 3.6499C21.8361 3.6499 17.65 7.83604 17.65 12.9999C17.65 18.1638 21.8361 22.3499 27 22.3499Z" stroke="currentColor" stroke-width="2"/>
</svg>
