<svg xmlns="http://www.w3.org/2000/svg" viewBox="0 0 40 40">
  <g fill="none" fill-rule="evenodd">
    <path d="M0 0h40v40H0z"/>
    <path fill="currentColor" fill-rule="nonzero" d="M5 28.31v4.26h4.3A4.27 4.27 0 0 0 5 28.31zm0-5.68v2.84a7.13 7.13 0 0 1 7.15 7.1h2.86c0-5.5-4.47-9.94-10.01-9.94zm0-5.68v2.84c7.11 0 12.88 5.72 12.88 12.78h2.86c0-8.63-7.06-15.62-15.74-15.62zM33.61 7H7.86A2.86 2.86 0 0 0 5 9.84v4.26h2.86V9.84h25.75v19.9H23.6v2.83H33.6a2.86 2.86 0 0 0 2.87-2.84V9.84A2.86 2.86 0 0 0 33.6 7z"/>
  </g>
</svg>