<svg fill="none" xmlns="http://www.w3.org/2000/svg" viewBox="0 0 40 40"><path d="M3 10a7 7 0 017-7h20a7 7 0 017 7v20a7 7 0 01-7 7H10a7 7 0 01-7-7V10z" stroke="currentColor" stroke-width="2"/><path clip-rule="evenodd" d="M28.5 25a4.5 4.5 0 100-9 4.5 4.5 0 000 9z" stroke="currentColor" stroke-width="2"/><path fill-rule="evenodd" clip-rule="evenodd" d="M28.5 21a.5.5 0 110-1 .5.5 0 010 1z" fill="currentColor" stroke="currentColor" stroke-width="2"/><path clip-rule="evenodd" d="M11.5 25a4.5 4.5 0 100-9 4.5 4.5 0 000 9z" stroke="currentColor" stroke-width="2"/><path clip-rule="evenodd" d="M11.5 22a1.5 1.5 0 100-3 1.5 1.5 0 000 3z" stroke="currentColor" stroke-width="1.2"/></svg>
