<svg width="40" height="40" viewBox="0 0 40 40" fill="none" xmlns="http://www.w3.org/2000/svg"><path d="M3 10a7 7 0 017-7h20a7 7 0 017 7v20a7 7 0 01-7 7H10a7 7 0 01-7-7V10z" stroke="currentColor" stroke-width="2"/><path fill-rule="evenodd" clip-rule="evenodd" d="M25.92 29.5A1.08 1.08 0 0027 28.42v-1.34c0-.596.484-1.08 1.08-1.08h2.84A1.08 1.08 0 0032 24.92V11.08A1.08 1.08 0 0030.92 10H9.08A1.08 1.08 0 008 11.08v13.84c0 .596.484 1.08 1.08 1.08h2.84c.597 0 1.08.483 1.08 1.08v1.34c0 .596.484 1.08 1.08 1.08h1.34c.597 0 1.08.483 1.08 1.08v.34c0 .596.484 1.08 1.08 1.08h4.84a1.08 1.08 0 001.08-1.08v-.34c0-.596.484-1.08 1.08-1.08h1.34zM29 13a1 1 0 10-2 0v6a1 1 0 102 0v-6zm-5-1a1 1 0 011 1v6a1 1 0 11-2 0v-6a1 1 0 011-1zm-3 1a1 1 0 10-2 0v6a1 1 0 102 0v-6zm-5-1a1 1 0 011 1v6a1 1 0 11-2 0v-6a1 1 0 011-1zm-3 1a1 1 0 10-2 0v6a1 1 0 102 0v-6z" fill="currentColor"/></svg>
