<svg xmlns="http://www.w3.org/2000/svg" viewBox="0 0 40 40">
  <g fill="none" fill-rule="evenodd" stroke="currentColor" stroke-linecap="square" stroke-width="2">
    <path d="M24.3385 9.8813L10.6267 22.7595a3.355 3.355 0 0 0-.971 1.6858l-1.207 5.1918c-.2098.9024.3517 1.804 1.254 2.0138.2246.0522.4575.0575.6842.0157l5.5049-1.0155a3.355 3.355 0 0 0 1.6817-.8477l13.632-12.7354c1.354-1.265 1.4261-3.388.1612-4.742a3.3549 3.3549 0 0 0-.0742-.0769l-2.2798-2.2895c-1.2805-1.286-3.3514-1.3207-4.6742-.0783zM16.6557 28.3443l-5-5"/>
  </g>
</svg>