
<svg width="40" height="40" viewBox="0 0 40 40" fill="none" xmlns="http://www.w3.org/2000/svg"><path d="M3 31h34" stroke="currentColor" stroke-width="2" stroke-linecap="round"/><rect x="7" y="9" width="26" height="18" rx="1.895" stroke="currentColor" stroke-width="2"/><path d="M15.793 20.793a1 1 0 001.414 1.414l-1.414-1.414zm8.414-5.586a1 1 0 00-1.414-1.414l1.414 1.414zm-7 7l7-7-1.414-1.414-7 7 1.414 1.414z" fill="currentColor"/><path d="M17.207 13.793a1 1 0 00-1.414 1.414l1.414-1.414zm5.586 8.414a1 1 0 001.414-1.414l-1.414 1.414zm-7-7l7 7 1.414-1.414-7-7-1.414 1.414z" fill="currentColor"/></svg>
