<svg xmlns="http://www.w3.org/2000/svg" viewBox="0 0 40 40">
  <g fill="none" fill-rule="evenodd">
    <path fill="currentColor" fill-rule="nonzero" d="M7.3 15.6c-.4-.7-.8-2.4-1.3-2.8-.5-.4-1.1-.1-1.8-.6-.4-.2 1.5-3.4 4.5-5.6 2.6-2 6.3-3.2 6.8-3.2.3 0 2-1.7 2 0 0 2.3-4 4-4.7 5.6-1 1.9-1.3 1.9-2.4 1.6-.7-.2-1.3-.6-1.7 0-.5.6-.6 1.2-.8 1.8-.3.9 1.1 3 1.7 3.5.7.5 3-.7 4-.6.7.1 2 .7 3.1 1.7.6.5.6 1.6 1.2 1.7 1.7.4 3.3.3 3.4 2 0 2.8-1.4 3.3-2.8 5.4-1 1.8-2 2.4-2.5 3.4-.5 1.1.8 2 0 2.7-.8.7-1.5.5-2.4-1.8-.8-2.3-.2-4.4-.8-6.2-.6-1.8-2-1.3-2.7-3.2-.7-1.8-.3-2-.7-3.1-.3-1.2-1.8-1.7-2.1-2.3zm17.4-2.3a5 5 0 01.2-2.8c.6-1.3 1.3-1.5 2.1-1.7.5-.2 1.3-.7 1.7-.7 1 0 .9-1.4 1.4-1.1a23.7 23.7 0 013.4 3.2c1.9 2.4 2.5 4.6 2.7 5.2.4 1.4 1 9.7-.5 10.2-.4.1-1.5.3-1.7.2-.1-.1.2-2 .3-2.6 0-.4-.3-1-.3-1.6 0-.6.5-1.2.5-1.8 0-.6-1-.7-1.6-1.4-.5-.6-.2-1.7-.7-2-.5-.5-1.8.6-2.7.5a10.9 10.9 0 01-2.9-.6c-.6-1-1.7-1.9-1.9-3z"/>
    <circle cx="20" cy="20" r="17" stroke="currentColor" stroke-width="2"/>
  </g>
</svg>
