<svg xmlns="http://www.w3.org/2000/svg" viewBox="0 0 40 40">
  <g fill="none" fill-rule="evenodd">
    <path stroke="currentColor" stroke-width="1.975309" d="M27.25493 18.58813l-4.246583-4.246584c-.771406-.771406-2.022102-.771406-2.793508 0L7.91439 26.641994c-.771406.771406-.771406 2.022102 0 2.793508l4.246583 4.246583c.771406.771406 2.022102.771406 2.793508 0L27.25493 21.381637c.771406-.771406.771406-2.022102 0-2.793508z"/>
    <path fill="currentColor" d="M23.996544 13.781386c1.066355-1.066355 2.5648-.910653 3.585046.109594 1.020247 1.020247 1.17595 2.518691.109594 3.585046-1.066355 1.066356-4.760995-2.628284-3.69464-3.69464z"/>
    <path stroke="currentColor" stroke-linecap="round" stroke-linejoin="round" stroke-width="1.975309" d="M37.573276 15.974459c.370244-3.337352-.660408-6.719743-3.124377-9.183712-2.459855-2.459854-5.835544-3.49133-9.16729-3.125516M25.82011 8.78133c1.929994-.283301 3.908274.272673 5.331928 1.696327 1.424228 1.424228 1.980202 3.402508 1.6969 5.3325"/>
    <path stroke="currentColor" stroke-width="1.975309" d="M7.66658 29.18769l-1.413651 1.413651c-.482129.482129-.482129 1.263814 0 1.745943l2.647074 2.647074c.482129.482129 1.263814.482129 1.745943 0l1.41365-1.41365L7.66658 29.18769z"/>
  </g>
</svg>