<svg xmlns="http://www.w3.org/2000/svg" viewBox="0 0 40 40">
  <g fill="none" fill-rule="evenodd">
    <path fill="currentColor" fill-rule="nonzero" d="M13.94 19.7c0-.58.46-1.02 1.03-1.02a1.02 1.02 0 1 1 0 2.04c-.57 0-1.03-.47-1.03-1.02zm9.54 0c0-.58.47-1.02 1.04-1.02a1.02 1.02 0 1 1 0 2.04c-.57 0-1.04-.47-1.04-1.02z"/>
    <path fill="currentColor" d="M16.96 22.73c0 1.1 1.18 2.62 2.62 2.62 1.45 0 2.62-1.52 2.62-2.62s-1.17-1.43-2.62-1.43c-1.44 0-2.62.33-2.62 1.43z"/>
    <path stroke="currentColor" stroke-linecap="round" stroke-width="2" d="M21.76 31.61A11.98 11.98 0 0 1 7.53 19.97c0-1.02.13-2.04.4-3.03a4.89 4.89 0 0 1-1.8-3.8c0-2.77 2.27-5 5.05-5a5.2 5.2 0 0 1 3.22 1.13 12.51 12.51 0 0 1 10.34 0 5.2 5.2 0 0 1 3.21-1.13 5.02 5.02 0 0 1 5.05 5c0 1.48-.65 2.86-1.8 3.8.12.45.22.9.29 1.36"/>
    <g transform="translate(24 22)">
      <rect width="12" height="9.57" y="5.43" fill="currentColor" rx="1.14"/>
      <path stroke="currentColor" stroke-linecap="square" stroke-width="2" d="M9.14 3.58A3.1 3.1 0 0 0 6 .54a3.1 3.1 0 0 0-3.14 3.04v3.07h6.28V3.58z"/>
    </g>
  </g>
</svg>