<svg xmlns="http://www.w3.org/2000/svg" viewBox="0 0 40 40">
  <g fill="none" fill-rule="evenodd">
    <path fill="currentColor" fill-rule="nonzero" d="M13.538 19.263c0-.715.567-1.26 1.268-1.26.7 0 1.267.58 1.267 1.26 0 .715-.567 1.26-1.267 1.26s-1.268-.58-1.268-1.26zm11.673 0c0-.715.567-1.26 1.267-1.26s1.268.58 1.268 1.26c0 .715-.567 1.26-1.268 1.26-.7 0-1.267-.58-1.267-1.26z"/>
    <path fill="currentColor" d="M17.24 23.008c0 1.361 1.434 3.233 3.202 3.233s3.202-1.872 3.202-3.233c0-1.362-1.434-1.77-3.202-1.77s-3.202.408-3.202 1.77z"/>
    <path stroke="currentColor" stroke-width="2" d="M20.442 34.207c-8.104 0-14.741-6.57-14.741-14.603 0-1.26.167-2.52.5-3.745A6.053 6.053 0 0 1 4 11.161C4 7.757 6.768 5 10.17 5c1.434 0 2.835.51 3.935 1.396 3.936-1.839 8.705-1.839 12.64 0A6.323 6.323 0 0 1 30.681 5c3.401 0 6.17 2.757 6.17 6.161 0 1.839-.8 3.54-2.202 4.698.334 1.225.5 2.485.5 3.745 0 8.067-6.603 14.603-14.707 14.603"/>
  </g>
</svg>