<svg xmlns="http://www.w3.org/2000/svg" viewBox="0 0 40 40"><g fill="none" fill-rule="evenodd"><path stroke="currentColor" stroke-linecap="round" stroke-linejoin="round" stroke-width="2" d="M10 14c-2 1-5 4-6 5.727C8.776 25.91 14.109 29 20 29c1.791 0 4-1 4-1m4.343-1.275c2.695-1.545 5.247-3.878 7.657-6.998C31.224 13.91 25.891 11 20 11c-2.07 0-4.07.359-6 1.077"/><path fill="currentColor" d="M16.071 15.465a6 6 0 018.464 8.464l-8.464-8.464zM22.736 25.27a6 6 0 01-8.077-8.077l8.077 8.077z"/><path stroke="currentColor" stroke-linecap="round" stroke-linejoin="round" stroke-width="2" d="M7.748 6.247l25.456 25.456"/></g></svg>