<svg xmlns="http://www.w3.org/2000/svg" viewBox="0 0 40 40"><g fill="none" fill-rule="evenodd"><path stroke="currentColor" stroke-width="2" d="M11.182 4h10.005c.579 0 1.134.21 1.543.586l9.631 8.828c.41.375.639.884.639 1.414V34c0 1.105-.977 2-2.182 2H11.182C9.977 36 9 35.105 9 34V6c0-1.105.977-2 2.182-2z"/><path fill="currentColor" stroke="currentColor" stroke-linecap="round" stroke-linejoin="round" stroke-width="2" d="M22 5v9a1 1 0 001 1h10L22 5z"/><path d="M29.333 24.385h-1.555a.453.453 0 00-.445.461c0 .255.2.462.445.462h1.095c.377 0 .683.317.683.709 0 .391-.306.709-.683.709h-.65c-.492 0-.89.413-.89.923v.659a.68.68 0 01-.666.692.68.68 0 01-.667-.692v-4.385c0-.51.398-.923.889-.923h2.444a.68.68 0 01.667.692.68.68 0 01-.667.693zM21.257 29H20c-.552 0-1-.413-1-.923v-4.154c0-.51.448-.923 1-.923h1.524c2.326 0 3.493 1.185 3.476 2.896.008 2.17-1.202 3.104-3.743 3.104zm.035-4.615c-.437 0-.792.327-.792.73v1.77c0 .403.355.73.792.73 1.708 0 2.208-.47 2.208-1.62 0-1.149-.5-1.61-2.208-1.61zM15.5 27.154h-1v1.154c0 .382-.336.692-.75.692s-.75-.31-.75-.692v-4.385c0-.51.448-.923 1-.923h1.5c1.528 0 2.5.74 2.5 2.015 0 1.289-.817 2.139-2.5 2.139zm-.56-2.77c-.243 0-.44.183-.44.407v.605c0 .206.18.373.404.373.74 0 1.596-.132 1.596-.692 0-.576-.829-.692-1.56-.692z" fill="currentColor" fill-rule="nonzero"/></g></svg>