<svg xmlns="http://www.w3.org/2000/svg" viewBox="0 0 40 40">
  <g fill="none" fill-rule="evenodd">
    <path fill="currentColor" d="M28.101 21.005l-8.952 5.011a1.152 1.152 0 0 1-1.715-1.005V14.989a1.152 1.152 0 0 1 1.715-1.005l8.952 5.01a1.152 1.152 0 0 1 0 2.011zM6.28 21.871l-3.618-6.029a.502.502 0 0 1 .43-.76h7.237a.502.502 0 0 1 .43.76l-3.618 6.03a.502.502 0 0 1-.86 0z"/>
    <path stroke="currentColor" stroke-linecap="round" stroke-width="2" d="M8.372 28.493C11.202 33.003 16.218 36 21.934 36c8.837 0 16-7.163 16-16 0-7.8-5.58-14.296-12.968-15.713A16.084 16.084 0 0 0 21.934 4C13.656 4 6.846 10.287 6.02 18.347"/>
  </g>
</svg>