<svg xmlns="http://www.w3.org/2000/svg" viewBox="0 0 40 40">
  <g fill="none" fill-rule="evenodd">
    <path stroke="currentColor" stroke-width="2" d="M13 29H5c-1.1 0-2-.8-2-1.8V14.8c0-1 .9-1.8 2-1.8h30c1.1 0 2 .8 2 1.8v12.4c0 1-.9 1.8-2 1.8h-8"/>
    <rect width="14" height="10" x="13" y="25" stroke="currentColor" stroke-width="2" rx="2"/>
    <path stroke="currentColor" stroke-width="2" d="M13 12.3V7c0-1.1.9-2 2-2h10a2 2 0 0 1 2 2v5"/>
    <circle cx="28.5" cy="18.5" r="1.5" fill="currentColor" fill-rule="nonzero"/>
    <circle cx="32.5" cy="18.5" r="1.5" fill="currentColor" fill-rule="nonzero"/>
  </g>
</svg>