<svg xmlns="http://www.w3.org/2000/svg" viewBox="0 0 40 40">
  <g fill="none" fill-rule="evenodd">
    <path fill="currentColor" d="M23.29 20.2l-5.82 3.22a.73.73 0 0 1-1.08-.64v-6.43a.73.73 0 0 1 1.08-.64l5.82 3.22a.73.73 0 0 1 0 1.27z"/>
    <path stroke="currentColor" stroke-linecap="round" stroke-width="2" d="M18.83 32.9a13.4 13.4 0 0 1-13.3-13.5 13.4 13.4 0 0 1 13.3-13.5c6.56 0 12.02 4.84 13.1 11.2M25.25 28.64a4.74 4.74 0 1 0 4.74-4.74"/>
    <path fill="currentColor" d="M29.3 29.22c.02 0 .03.02.04.03a.84.84 0 0 0 1.5-.52.85.85 0 0 0-.28-.62l-.07-.07-3.75-2.6 2.56 3.78z"/>
  </g>
</svg>