<svg xmlns="http://www.w3.org/2000/svg" viewBox="0 0 40 40">
  <g fill="none" fill-rule="evenodd">
    <path stroke="currentColor" stroke-linecap="round" stroke-width="2" d="M14.65 19.938h8.775M19.038 15.625v8.625M19.116 33.175c-7.157 0-12.96-5.894-12.96-13.162 0-7.269 5.803-13.163 12.96-13.163 6.403 0 11.722 4.717 12.771 10.916M25.375 29.02a4.621 4.621 0 1 0 4.622-4.62"/>
    <path fill="currentColor" d="M29.332 29.582l.038.035a.81.81 0 0 0 .636.311.823.823 0 0 0 .822-.821.824.824 0 0 0-.272-.606c-.02-.02-.04-.046-.072-.07l-3.651-2.525 2.5 3.676z"/>
  </g>
</svg>