<svg xmlns="http://www.w3.org/2000/svg" viewBox="0 0 40 40"><g fill="none" fill-rule="evenodd"><path fill="currentColor" d="M20 10.083c6.075 0 11 4.925 11 11.002 0 6.074-4.925 10.998-11 10.998-6.074 0-11-4.924-11-10.998 0-6.077 4.926-11.002 11-11.002zM19.72 14a1 1 0 00-1 1v6.589l.302.586.001.002 2.538 4.946.073.1a.996.996 0 001.762-.864l-2.677-5.21V15a1 1 0 00-1-.999z"/><path stroke="currentColor" stroke-linecap="round" stroke-width="2" d="M13.207 28.492l-2.49 4.824M26.923 28.492l2.49 4.824M11.803 9.186C13.927 7.062 16.72 6 20.183 6c3.462 0 6.425 1.062 8.887 3.186"/></g></svg>