<svg xmlns="http://www.w3.org/2000/svg" viewBox="0 0 40 40"><g fill="none" fill-rule="evenodd"><path stroke="currentColor" stroke-linecap="round" stroke-linejoin="round" stroke-width="2" d="M25 27.356v6.61A2.047 2.047 0 0122.942 36H9.057A2.047 2.047 0 017 33.966V8.034C7 6.91 7.921 6 9.057 6h4.629"/><path fill="currentColor" d="M19.638 4.086c1.407-1.478 2.11-1.019 4.71-1.019 2.599 0 4.264-.168 5.203 1.02.94 1.185.229 2.893-.53 4.877-.76 1.984-1.917 1.951-2.556 3.185-.64 1.234-.17 1.934-.654 3.021-.486 1.088-.661 1.496-1.463 1.725-.802.23-1.053.131-1.781-.796-.728-.928-.7-1.14-.947-2.679-.246-1.538.409-1.746 0-3.236-.41-1.49-1.087-1.019-1.594-2.578-.507-1.559-1.796-2.042-.388-3.52"/><path stroke="currentColor" stroke-width="2" d="M24.5 3C30.299 3 35 7.701 35 13.5 35 19.3 30.299 24 24.5 24S14 19.3 14 13.5C14 7.701 18.701 3 24.5 3z"/><path fill="currentColor" d="M28.047 18.002C28.696 17 30.984 17 31.964 17s1.659.18 2.036.537L30.414 22c-1.062-.345-1.694-.847-1.895-1.506-.201-.658-.668-1.574-.472-2.492M16 29a2 2 0 11-.001 4.002A2 2 0 0116 29"/></g></svg>