<svg xmlns="http://www.w3.org/2000/svg" viewBox="0 0 40 40">
  <g fill="none" fill-rule="evenodd">
    <path fill="currentColor" d="M35.26 13.35l-4.18 2.46a.61.61 0 0 1-.92-.52v-4.92a.61.61 0 0 1 .92-.53l4.18 2.46a.61.61 0 0 1 0 1.05zM35.26 27.12l-4.18 2.46a.61.61 0 0 1-.92-.52v-4.92a.61.61 0 0 1 .92-.53l4.18 2.46a.61.61 0 0 1 0 1.05z"/>
    <path stroke="currentColor" stroke-linecap="round" stroke-width="2" d="M3.93 27.17h5.04c1.12 0 3.98-.37 6.24-3.22M3.93 12.56h5.04c1.12 0 4.61.37 6.55 3.36 1.94 2.99 3.78 7.11 5.64 8.47 1.86 1.35 2.93 2.04 6.35 2.04h3.21M30.76 12.56h-5.03c-1.13 0-3.98.38-6.25 3.22"/>
  </g>
</svg>