<svg xmlns="http://www.w3.org/2000/svg" viewBox="0 0 40 40"><g fill="none" fill-rule="evenodd"><rect width="22" height="22" x="9" y="9" stroke="currentColor" stroke-width="2" rx="4"/><circle cx="20" cy="20" r="2" fill="currentColor" fill-rule="nonzero"/><path fill="currentColor" fill-rule="nonzero" stroke="currentColor" d="M31 13h2a1 1 0 011 1v2a1 1 0 01-1 1h-2v-4z"/><path stroke="currentColor" stroke-width="2" d="M15 2h10a2 2 0 012 2v5H13V4a2 2 0 012-2zm-2 29h14v5a2 2 0 01-2 2H15a2 2 0 01-2-2v-5z"/><rect width="2" height="8" x="19" y="12" fill="currentColor" fill-rule="nonzero" rx="1"/><rect width="2" height="8" x="21" y="19" fill="currentColor" fill-rule="nonzero" rx="1" transform="rotate(150 22 23)"/></g></svg>