<svg xmlns="http://www.w3.org/2000/svg" viewBox="0 0 40 40">
  <g fill="none" fill-rule="evenodd">
    <path stroke="currentColor" stroke-linecap="round" stroke-width="2" d="M15 19.844h18M15 28.344h18M15 11.344h18"/>
    <path fill="currentColor" d="M7.02 12.582V10.29a2.42 2.42 0 0 1-.894.222L6 9.846c.438-.114.93-.408 1.23-.762h.78v3.498h.75v.762H6.174v-.762h.846zm-.9 9.082v-.6l1.392-1.638c.282-.33.396-.51.396-.762 0-.288-.198-.462-.492-.462-.306 0-.756.234-1.038.462L6 18.034c.384-.366.972-.69 1.596-.69.678 0 1.302.39 1.302 1.188 0 .486-.186.804-.546 1.236l-.906 1.086H8.97v.81H6.12zM6 29.9l.39-.624c.306.228.63.372 1.002.372.36 0 .648-.144.648-.498 0-.33-.21-.516-.678-.522-.12 0-.324.012-.408.03l-.018-.78c.492-.012.924-.228.924-.594 0-.282-.198-.384-.48-.384-.312 0-.6.114-.846.252l-.366-.612c.414-.288.828-.456 1.398-.456.732 0 1.242.384 1.242 1.044 0 .45-.3.846-.792 1.02v.018c.618.06.96.426.96 1.026 0 .87-.672 1.29-1.506 1.29-.522 0-1.074-.18-1.47-.582z"/>
  </g>
</svg>