<svg xmlns="http://www.w3.org/2000/svg" viewBox="0 0 40 40">
  <g fill="none" fill-rule="evenodd">
    <path stroke="currentColor" stroke-linecap="round" stroke-linejoin="round" stroke-width="2" d="M37.1 21.97c1 4.48-2.37 9.77-7.94 9.43H9.85C5.6 31.5 2 28.09 2 24.09c0-6 4.45-7.43 6-8 1-6 6.3-8.09 9-8.09.6 0 2 0 2.03.06"/>
    <ellipse cx="30.17" cy="13.04" stroke="currentColor" stroke-width="2" rx="8.17" ry="8.04"/>
    <path fill="currentColor" d="M33.53 13.7l-4.87 2.86a.44.44 0 0 1-.66-.37v-5.74a.44.44 0 0 1 .66-.37l4.87 2.86a.44.44 0 0 1 0 .76z"/>
  </g>
</svg>