<svg viewBox="0 0 40 40" fill="none" xmlns="http://www.w3.org/2000/svg">
<path d="M16.25 36H29.75C30.875 36 32 34.9167 32 33.8333L32 12.1667C32 11.0833 30.875 10 29.75 10H16.25C15.125 9.99999 14 11.0833 14 12.1667V33.8333C14 34.9167 15.125 36 16.25 36Z" stroke="currentColor" stroke-width="2" stroke-linecap="round" stroke-linejoin="round"/>
<path d="M10.25 28C9.125 28 8 27 8 26C8.00001 25 8.00001 7 8 6C8 5 9.125 3.99999 10.25 4C11.375 4.00001 17 4 17 4C17 4 22.625 4.00004 23.75 4.00002C24.875 4 26 5 26 6" stroke="currentColor" stroke-width="2" stroke-linecap="round" stroke-linejoin="round"/>
<path d="M18 21C18.5523 21 19 20.5523 19 20C19 19.4477 18.5523 19 18 19C17.4477 19 17 19.4477 17 20C17 20.5523 17.4477 21 18 21Z" fill="currentColor"/>
<path d="M18 25C18.5523 25 19 24.5523 19 24C19 23.4477 18.5523 23 18 23C17.4477 23 17 23.4477 17 24C17 24.5523 17.4477 25 18 25Z" fill="currentColor"/>
<path d="M18 17C18.5523 17 19 16.5523 19 16C19 15.4477 18.5523 15 18 15C17.4477 15 17 15.4477 17 16C17 16.5523 17.4477 17 18 17Z" fill="currentColor"/>
<path d="M21 15C20.4477 15 20 15.4477 20 16C20 16.5523 20.4477 17 21 17V15ZM28 17C28.5523 17 29 16.5523 29 16C29 15.4477 28.5523 15 28 15V17ZM21 17H28V15H21V17Z" fill="currentColor"/>
<path d="M21 19C20.4477 19 20 19.4477 20 20C20 20.5523 20.4477 21 21 21V19ZM28 21C28.5523 21 29 20.5523 29 20C29 19.4477 28.5523 19 28 19V21ZM21 21H28V19H21V21Z" fill="currentColor"/>
<path d="M21 23C20.4477 23 20 23.4477 20 24C20 24.5523 20.4477 25 21 25V23ZM28 25C28.5523 25 29 24.5523 29 24C29 23.4477 28.5523 23 28 23V25ZM21 25H28V23H21V25Z" fill="currentColor"/>
<path d="M18 31C17.4477 31 17 31.4477 17 32C17 32.5523 17.4477 33 18 33V31ZM28 33C28.5523 33 29 32.5523 29 32C29 31.4477 28.5523 31 28 31V33ZM18 33H28V31H18V33Z" fill="currentColor"/>
</svg>
