<svg xmlns="http://www.w3.org/2000/svg" viewBox="0 0 40 40"><g fill="none" fill-rule="evenodd" stroke="currentColor" stroke-width="2" transform="translate(4 5)"><path stroke-linecap="round" d="M.902 28.646c.172-5.6 2.607-8.4 7.305-8.4h10.536c.965 0 1.833.137 2.605.41"/><ellipse cx="12.921" cy="8.179" rx="8.173" ry="7.933"/><path d="M29.66 27.984c-.005-5.967-.004-8.995.003-9.085 1.339-.741 2.239-2.121 2.239-3.7 0-1.75-1.105-3.256-2.688-3.919 0 0 0 0 0 0a.34.34 0 00-.472.314v3.596a.864.864 0 01-.864.864h-.976a.864.864 0 01-.864-.864v-3.638a.305.305 0 00-.422-.283s0 0 0 0c-1.597.658-2.714 2.17-2.714 3.93 0 1.578.9 2.958 2.237 3.7v9.085a2.262 2.262 0 004.521 0z"/></g></svg>