<svg xmlns="http://www.w3.org/2000/svg" viewBox="0 0 40 40"><g fill="none" fill-rule="evenodd"><path stroke="currentColor" stroke-linecap="round" stroke-linejoin="round" stroke-width="2" d="M23 35l.268-3.778C25.5 29.94 27 27.557 27 24.828c0-3.023-1.842-5.623-4.48-6.768a.564.564 0 00-.738.281.543.543 0 00-.048.223v4.472c0 .544-.253 1.058-.687 1.395l-1.511 1.176-1.588-1.176a1.769 1.769 0 01-.721-1.421v-4.516a.499.499 0 00-.503-.494.51.51 0 00-.2.04C13.862 19.177 12 21.789 12 24.829c0 2.728 1.5 5.111 3.73 6.392L16 35"/><path stroke="currentColor" stroke-width="2" d="M4.118 5h31.764A2.11 2.11 0 0138 7.102v26.27a2.11 2.11 0 01-2.118 2.103H4.118A2.11 2.11 0 012 33.373V7.102A2.11 2.11 0 014.118 5z"/><path stroke="currentColor" stroke-linecap="square" stroke-width="2" d="M2.53 13h34.94"/><ellipse cx="6.147" cy="9.116" fill="currentColor" fill-rule="nonzero" rx="1.5" ry="1.489"/><ellipse cx="10.382" cy="9.116" fill="currentColor" fill-rule="nonzero" rx="1.5" ry="1.489"/><ellipse cx="14.618" cy="9.116" fill="currentColor" fill-rule="nonzero" rx="1.5" ry="1.489"/></g></svg>