<svg xmlns="http://www.w3.org/2000/svg" viewBox="0 0 40 40">
  <g fill="none" fill-rule="evenodd" stroke="currentColor" stroke-width="2">
    <path d="M26.3 16a3 3 0 0 1-.6-1.3 3 3 0 0 1 2.3-3.6L27.5 9c-.3-1.3-1.5-2-2.8-1.8L5.2 11.5a2.3 2.3 0 0 0-1.8 2.8l.6 2.2c1.6-.4 3.3.6 3.7 2.2.2.8 0 1.5-.3 2.2a3 3 0 0 1-2 1.4l.5 2.3c.3 1.2 1.5 2 2.7 1.7L10 26"/>
    <path d="M26.3 16l8.4 1.5a2 2 0 0 1 1.6 2.3l-.5 2.6c-1.7-.3-3.3.7-3.7 2.4a3 3 0 0 0 2.5 3.5l-.5 2.6a2 2 0 0 1-2.3 1.5l-20.3-3.7a2 2 0 0 1-1.6-2.3V26l.5-2.2c1.7.4 3.3-.7 3.6-2.3a3 3 0 0 0-2.5-3.6l.5-2.5a2 2 0 0 1 2.3-1.6l12 2.2z"/>
    <path stroke-linecap="round" d="M16.8 24l11.8 2M17.6 20.2l11.7 2"/>
  </g>
</svg>