<svg width="223" height="61" xmlns="http://www.w3.org/2000/svg"><g fill-rule="nonzero" fill="none"><path d="M71.9 35.25c0 1.54.36 3.77 4.25 3.77 1.36 0 3.42-.46 3.42-2.45 0-1.39-1.16-1.77-5.79-3.08-4.25-1.21-9.1-2.38-9.1-7.79 0-6.2 5.3-8.88 10.83-8.88 5.83 0 11 2.22 11.21 8.77H78.9v-.38c0-1.55-1.67-2.44-3.46-2.44-1.12 0-3 .3-3 1.8.15 1.92 4 2.34 7.79 3.39 3.79 1.05 7.56 2.82 7.56 7.75 0 7-6.43 9.25-12.41 9.25-3.14 0-11.81-1.16-11.81-9.71h8.33zM14.38 45.6L22 25h-7.64l-3.51 11.29L7.91 25H0l7.07 18.5c-.8 1.92-1.78 2.24-2.86 2.24-.55 0-1.63-.15-1.63-.15v5.09c1.22.3 2.46.5 3.71.57a8.45 8.45 0 0 0 8.09-5.65zm48.46-1.13h-7.19V42c-1.39 2-3.46 3-6.43 3-3.5 0-6.69-2.15-6.69-6.62V25H50v10.3c0 2.13.26 3.77 2.45 3.77 1.28 0 3-.65 3-3.77V25h7.45l-.06 19.47zm-31.75-20c-7.33 0-10.64 4.83-10.64 10.25S23.76 45 31.09 45s10.65-4.84 10.65-10.25-3.31-10.29-10.65-10.29v.01zm0 15.08c-2.44 0-3.2-2.05-3.2-4.83 0-2.78.76-4.83 3.2-4.84 2.43 0 3.19 2.06 3.19 4.84s-.75 4.82-3.18 4.82l-.01.01zm68.07.64c-2 0-3.35-1.58-3.54-3.8h14.3c0-7.6-3-11.92-10.76-11.92-7.33 0-10.64 4.83-10.64 10.25S91.84 45 99.17 45c4.44 0 8.84-2 10.34-6.17h-6.95c-.13.17-.82 1.35-3.39 1.35l-.01.01zm3.5-7.67h-7a3.51 3.51 0 0 1 7 0zm18.54 7.67c-2 0-3.35-1.58-3.54-3.8H132c0-7.6-3-11.92-10.76-11.92-7.33 0-10.64 4.83-10.64 10.25S113.88 45 121.21 45c4.44 0 8.84-2 10.34-6.17h-7c-.08.17-.77 1.35-3.34 1.35l-.01.01zm3.5-7.67h-7a3.51 3.51 0 0 1 7 0z" fill="#FFF"/><path d="M165.88 41.26c-3.33-3-8.6-5.71-12.71-8 3.49-3.39 8.65-8.05 11.7-12.09 6-8 2.32-20.29-.14-20.91-3-.76-2.26 1.8-2.26 1.8a27.18 27.18 0 0 1 1.47 7.4l-27.37 6.92A23.87 23.87 0 0 1 135 10a1.45 1.45 0 0 0-2.88.28c.34 4 2.48 15.42 15.68 23.52l.33.21c-9.7 10.75-9 21.76-8.35 25.53a1.45 1.45 0 0 0 2.86-.44c-.07-.47-.14-1.06-.19-1.74L167.59 51c.62 2.13.9 4.34.83 6.55.1 1.1.81 2.06 1.85 2.45h1.21c.74-.1 1.3-.74 1.27-1.49-.11-3.32-.97-12.01-6.87-17.25zm-2.32-27a11.21 11.21 0 0 1-2 4.39c-.56.72-1.31 1.64-2.16 2.67l-19.68.9a28.44 28.44 0 0 1-2.32-3.92l26.16-4.04zm-21.18 11.2L158 23a258.97 258.97 0 0 1-7.67 8.67l-.6-.35a35.74 35.74 0 0 1-7.35-5.86zm17.68 16.7l-15.18 2.39a34 34 0 0 1 5.91-8.8c2.94 1.94 6.48 4.39 9.27 6.41zm-17.51 10.62c.27-2.19.8-4.34 1.57-6.4l19.79-1.29a12.1 12.1 0 0 1 2.92 3.91l-24.28 3.78z" fill="#1FAB2E"/><g fill="#FFF"><path d="M173.56 23.7c-.3-.25-.5-.6-.55-1 .02-.14.04-.29.08-.43a1 1 0 0 1 .94-.59l1.1-.13a17.7 17.7 0 0 1 7.47 4 8.77 8.77 0 0 1 1.65 1.78 10.22 10.22 0 0 1 2 5.65c.02.9-.17 1.78-.55 2.59-.14.31-.28.63-.41 1-.13.37-.26.67-.4 1a7.89 7.89 0 0 1-1.1 1.82L182.51 41l-1.31 1.61c-.85 1.06-1.83 2-2.93 2.8-.28.34-.59.68-.91 1-.25.3-.61.49-1 .51-.34-.03-.68-.1-1-.24-.4-.1-.74-.37-.94-.74a57.04 57.04 0 0 1-.12-3.82v-2.59c0-1.02.07-2.22.13-3.6s.09-2.59.12-3.61.05-1.88.05-2.59c0-.9 0-1.78-.07-2.63-.07-.85-.09-1.65-.15-2.42l-.82-.98zM178 41.31c3.2-3.2 4.8-6.24 4.8-9.13v-.59c0-.2 0-.4-.07-.59-.25-1.79-1.77-3.36-4.54-4.71 0 1.61-.1 3.24-.15 4.9a172 172 0 0 0-.06 5.15v2.46c-.05.82-.04 1.66.02 2.51zM188.41 46.78a96.92 96.92 0 0 1-.13-5c0-3 .17-6.75.51-11.25l.89-11.37c0-.62.58-.93 1.66-.93.32.02.64.1.93.25.46.2.89.48 1.27.81.46.87 1 2 1.53 3.39.53 1.39 1.18 3.06 1.83 5 .65 1.94 1.28 3.65 1.89 5.34a100.1 100.1 0 0 0 1.71 4.46l1.7-18.42c.06-.56.47-.84 1.23-.84.3 0 .6.05.89.12l.81.22c.27.1.47.32.55.59l-1.14 11.41c-.23 2.3-.41 4.37-.54 6.24a73.83 73.83 0 0 0-.19 5.09v1.47c0 .55.03 1.1.09 1.64 0 .44-.2.85-.53 1.13-.31.3-.73.48-1.17.49-.88 0-1.61-.6-2.21-1.78-.45-.88-.94-2-1.48-3.25s-1.11-2.71-1.72-4.26c-.61-1.55-1.24-3.23-1.89-5l-2-5.52c-.06-.17-.13-.25-.21-.25-.08 0-.33.2-.38.59-.12 1-.2 2.12-.26 3.29S192 32.76 192 34v10.5c0 1.09.08 2.2.13 3.33V48c.08.6-.2 1.2-.72 1.53-.16.18-.4.3-.64.3-.27-.02-.53-.1-.76-.26l-.81-.38c-.36-.12-.59-.45-.67-1l-.12-1.41zM205.94 46.82c.06-1.36.37-2.7.93-3.94a18.37 18.37 0 0 0 1.4-4.5c0-.23-.19-.48-.55-.77-.36-.29-.6-.55-.6-.72 0-.16.06-.31.17-.42.24-.23.56-.37.89-.38.48-.12.75-.27.81-.47.51-1.38 1.32-4 2.42-7.89.48-1.7.93-3.18 1.34-4.44.41-1.26.8-2.34 1.16-3.24a1 1 0 0 1 1.06-.6c.39 0 .77.14 1.06.39.85.78 1.4 1.85 1.53 3l.26 1.74c.09.59.15 1.17.21 1.74.71 3.33 1.43 6.37 2.16 9.1.73 2.73 1.48 5.2 2.25 7.41.15.38.24.78.26 1.18 0 .58-.27 1.13-.73 1.49-.45.4-.77.59-1 .59-1.39-.25-2.26-1.37-2.63-3.35-.27-1.82-.72-3.6-1.34-5.34l-2.89.26c-.94.07-1.84.42-2.59 1l-.53 1.82c-.22.76-.44 1.71-.7 2.84-.33 1.6-.8 3.18-1.4 4.71a.82.82 0 0 1-.84.51h-.28a.79.79 0 0 1-.32-.08c-.93-.28-1.43-.71-1.48-1.28l-.03-.36zm10.31-12a36.82 36.82 0 0 0-.56-3.52l-.4-1.7-.4-1.69a94.7 94.7 0 0 0-2.21 7c1.19-.13 2.38-.17 3.57-.14v.05z"/></g></g></svg>
