<svg xmlns="http://www.w3.org/2000/svg" viewBox="0 0 24 24"><g fill="currentColor" fill-rule="evenodd"><path fill-rule="nonzero" d="M6.41 6.276l1.194 1.653C5.752 8.743 3.99 10.096 2.312 12 5.27 15.355 8.487 17 12 17c.684 0 1.358-.062 2.02-.188l1.272 1.762A12.77 12.77 0 0 1 12 19C7.627 19 3.689 16.852.227 12.634a1 1 0 0 1 0-1.268c1.917-2.336 3.98-4.037 6.183-5.09zM8.34 5.53A12.75 12.75 0 0 1 12 5c4.373 0 8.311 2.148 11.773 6.366a1 1 0 0 1 0 1.268c-2.014 2.454-4.189 4.207-6.516 5.244l-1.202-1.663c1.977-.795 3.852-2.195 5.633-4.215C18.73 8.645 15.513 7 12 7c-.818 0-1.62.09-2.406.268L8.339 5.53z"/><path d="M8.805 9.592l4.477 6.198a4 4 0 0 1-4.476-6.198zm1.567-1.247a4 4 0 0 1 4.585 6.349l-4.585-6.349z"/><path fill-rule="nonzero" d="M5.69 3.085a1 1 0 0 1 1.62-1.17l13 18a1 1 0 0 1-1.62 1.17l-13-18z"/></g></svg>
